HIERARCHY
ROOT mixamorig:Hips
{
	OFFSET -0.000008 104.274872 1.554316
	CHANNELS 6 Xposition Yposition Zposition Xrotation Yrotation Zrotation
	JOINT mixamorig:Spine
	{
		OFFSET -0.000005 10.181595 0.131519
		CHANNELS 6 Xposition Yposition Zposition Xrotation Yrotation Zrotation
		JOINT mixamorig:Spine1
		{
			OFFSET -0.000000 9.893959 -1.470707
			CHANNELS 6 Xposition Yposition Zposition Xrotation Yrotation Zrotation
			JOINT mixamorig:Spine2
			{
				OFFSET -0.000000 9.220757 -1.370641
				CHANNELS 6 Xposition Yposition Zposition Xrotation Yrotation Zrotation
				JOINT mixamorig:Neck
				{
					OFFSET 0.000001 16.740417 -2.049036
					CHANNELS 6 Xposition Yposition Zposition Xrotation Yrotation Zrotation
					JOINT mixamorig:Head
					{
						OFFSET 0.000000 9.617874 1.685006
						CHANNELS 6 Xposition Yposition Zposition Xrotation Yrotation Zrotation
						JOINT mixamorig:HeadTop_End
						{
							OFFSET 0.000002 22.037354 7.501101
							CHANNELS 6 Xposition Yposition Zposition Xrotation Yrotation Zrotation
							End Site
							{
								OFFSET 0.000168 2310.654297 -282.823242
							}
						}
					}
				}
				JOINT mixamorig:RightShoulder
				{
					OFFSET -4.569970 11.014908 -2.160885
					CHANNELS 6 Xposition Yposition Zposition Xrotation Yrotation Zrotation
					JOINT mixamorig:RightArm
					{
						OFFSET -10.592851 -0.524811 -2.232101
						CHANNELS 6 Xposition Yposition Zposition Xrotation Yrotation Zrotation
						JOINT mixamorig:RightForeArm
						{
							OFFSET -27.841511 0.000031 -0.000004
							CHANNELS 6 Xposition Yposition Zposition Xrotation Yrotation Zrotation
							JOINT mixamorig:RightHand
							{
								OFFSET -28.328831 -0.000015 0.000015
								CHANNELS 6 Xposition Yposition Zposition Xrotation Yrotation Zrotation
								JOINT mixamorig:RightHandThumb1
								{
									OFFSET -2.464806 -1.573990 2.681852
									CHANNELS 6 Xposition Yposition Zposition Xrotation Yrotation Zrotation
									JOINT mixamorig:RightHandThumb2
									{
										OFFSET -3.215179 -1.872803 1.924282
										CHANNELS 6 Xposition Yposition Zposition Xrotation Yrotation Zrotation
										JOINT mixamorig:RightHandThumb3
										{
											OFFSET -2.654831 -1.527969 1.512609
											CHANNELS 6 Xposition Yposition Zposition Xrotation Yrotation Zrotation
											JOINT mixamorig:RightHandThumb4
											{
												OFFSET -2.018814 -1.152008 1.108052
												CHANNELS 6 Xposition Yposition Zposition Xrotation Yrotation Zrotation
												End Site
												{
													OFFSET -188.809540 -114.533607 132.431396
												}
											}
										}
									}
								}
								JOINT mixamorig:RightHandIndex1
								{
									OFFSET -9.108284 -0.517868 2.259835
									CHANNELS 6 Xposition Yposition Zposition Xrotation Yrotation Zrotation
									JOINT mixamorig:RightHandIndex2
									{
										OFFSET -3.699989 0.000000 0.001215
										CHANNELS 6 Xposition Yposition Zposition Xrotation Yrotation Zrotation
										JOINT mixamorig:RightHandIndex3
										{
											OFFSET -2.850006 0.000031 -0.000522
											CHANNELS 6 Xposition Yposition Zposition Xrotation Yrotation Zrotation
											JOINT mixamorig:RightHandIndex4
											{
												OFFSET -2.772186 -0.000015 -0.000020
												CHANNELS 6 Xposition Yposition Zposition Xrotation Yrotation Zrotation
												End Site
												{
													OFFSET -277.218445 0.000000 -0.050231
												}
											}
										}
									}
								}
								JOINT mixamorig:RightHandMiddle1
								{
									OFFSET -9.532516 -0.000031 -0.000023
									CHANNELS 6 Xposition Yposition Zposition Xrotation Yrotation Zrotation
									JOINT mixamorig:RightHandMiddle2
									{
										OFFSET -3.700005 -0.000015 0.003713
										CHANNELS 6 Xposition Yposition Zposition Xrotation Yrotation Zrotation
										JOINT mixamorig:RightHandMiddle3
										{
											OFFSET -2.949974 0.000015 -0.002054
											CHANNELS 6 Xposition Yposition Zposition Xrotation Yrotation Zrotation
											JOINT mixamorig:RightHandMiddle4
											{
												OFFSET -2.946640 0.000000 -0.000156
												CHANNELS 6 Xposition Yposition Zposition Xrotation Yrotation Zrotation
												End Site
												{
													OFFSET -294.664337 0.000000 -0.113670
												}
											}
										}
									}
								}
								JOINT mixamorig:RightHandRing1
								{
									OFFSET -9.103600 -0.043076 -1.865134
									CHANNELS 6 Xposition Yposition Zposition Xrotation Yrotation Zrotation
									JOINT mixamorig:RightHandRing2
									{
										OFFSET -3.379288 0.000000 -0.001055
										CHANNELS 6 Xposition Yposition Zposition Xrotation Yrotation Zrotation
										JOINT mixamorig:RightHandRing3
										{
											OFFSET -2.889687 -0.000015 0.000379
											CHANNELS 6 Xposition Yposition Zposition Xrotation Yrotation Zrotation
											JOINT mixamorig:RightHandRing4
											{
												OFFSET -2.638809 -0.000015 0.000941
												CHANNELS 6 Xposition Yposition Zposition Xrotation Yrotation Zrotation
												End Site
												{
													OFFSET -263.880371 0.000000 0.516020
												}
											}
										}
									}
								}
								JOINT mixamorig:RightHandPinky1
								{
									OFFSET -8.076683 -0.486710 -3.806280
									CHANNELS 6 Xposition Yposition Zposition Xrotation Yrotation Zrotation
									JOINT mixamorig:RightHandPinky2
									{
										OFFSET -3.600014 -0.000015 -0.003747
										CHANNELS 6 Xposition Yposition Zposition Xrotation Yrotation Zrotation
										JOINT mixamorig:RightHandPinky3
										{
											OFFSET -2.099983 0.000000 -0.005739
											CHANNELS 6 Xposition Yposition Zposition Xrotation Yrotation Zrotation
											JOINT mixamorig:RightHandPinky4
											{
												OFFSET -2.115768 -0.000031 -0.003680
												CHANNELS 6 Xposition Yposition Zposition Xrotation Yrotation Zrotation
												End Site
												{
													OFFSET -211.577087 0.000000 -0.350686
												}
											}
										}
									}
								}
							}
						}
					}
				}
				JOINT mixamorig:LeftShoulder
				{
					OFFSET 4.570447 11.014725 -2.160855
					CHANNELS 6 Xposition Yposition Zposition Xrotation Yrotation Zrotation
					JOINT mixamorig:LeftArm
					{
						OFFSET 10.592371 -0.524597 -2.232119
						CHANNELS 6 Xposition Yposition Zposition Xrotation Yrotation Zrotation
						JOINT mixamorig:LeftForeArm
						{
							OFFSET 27.841532 -0.000031 0.000026
							CHANNELS 6 Xposition Yposition Zposition Xrotation Yrotation Zrotation
							JOINT mixamorig:LeftHand
							{
								OFFSET 28.328846 -0.000061 0.000022
								CHANNELS 6 Xposition Yposition Zposition Xrotation Yrotation Zrotation
								JOINT mixamorig:LeftHandThumb1
								{
									OFFSET 2.466141 -1.576172 2.681732
									CHANNELS 6 Xposition Yposition Zposition Xrotation Yrotation Zrotation
									JOINT mixamorig:LeftHandThumb2
									{
										OFFSET 3.217812 -1.872070 1.916482
										CHANNELS 6 Xposition Yposition Zposition Xrotation Yrotation Zrotation
										JOINT mixamorig:LeftHandThumb3
										{
											OFFSET 2.656029 -1.528778 1.514513
											CHANNELS 6 Xposition Yposition Zposition Xrotation Yrotation Zrotation
											JOINT mixamorig:LeftHandThumb4
											{
												OFFSET 2.020889 -1.154053 1.115139
												CHANNELS 6 Xposition Yposition Zposition Xrotation Yrotation Zrotation
												End Site
												{
													OFFSET 190.885437 -115.081749 130.048782
												}
											}
										}
									}
								}
								JOINT mixamorig:LeftHandIndex1
								{
									OFFSET 9.109314 -0.518021 2.259871
									CHANNELS 6 Xposition Yposition Zposition Xrotation Yrotation Zrotation
									JOINT mixamorig:LeftHandIndex2
									{
										OFFSET 3.699989 0.000000 -0.000322
										CHANNELS 6 Xposition Yposition Zposition Xrotation Yrotation Zrotation
										JOINT mixamorig:LeftHandIndex3
										{
											OFFSET 2.850006 0.000000 0.000352
											CHANNELS 6 Xposition Yposition Zposition Xrotation Yrotation Zrotation
											JOINT mixamorig:LeftHandIndex4
											{
												OFFSET 2.774864 -0.000031 -0.000027
												CHANNELS 6 Xposition Yposition Zposition Xrotation Yrotation Zrotation
												End Site
												{
													OFFSET 277.486267 0.000000 -0.009857
												}
											}
										}
									}
								}
								JOINT mixamorig:LeftHandMiddle1
								{
									OFFSET 9.533394 0.000061 0.000044
									CHANNELS 6 Xposition Yposition Zposition Xrotation Yrotation Zrotation
									JOINT mixamorig:LeftHandMiddle2
									{
										OFFSET 3.699989 -0.000015 -0.000231
										CHANNELS 6 Xposition Yposition Zposition Xrotation Yrotation Zrotation
										JOINT mixamorig:LeftHandMiddle3
										{
											OFFSET 2.949997 -0.000015 -0.000059
											CHANNELS 6 Xposition Yposition Zposition Xrotation Yrotation Zrotation
											JOINT mixamorig:LeftHandMiddle4
											{
												OFFSET 2.952896 0.000031 0.000063
												CHANNELS 6 Xposition Yposition Zposition Xrotation Yrotation Zrotation
												End Site
												{
													OFFSET 295.289337 0.000000 0.022810
												}
											}
										}
									}
								}
								JOINT mixamorig:LeftHandRing1
								{
									OFFSET 9.104523 -0.042999 -1.865074
									CHANNELS 6 Xposition Yposition Zposition Xrotation Yrotation Zrotation
									JOINT mixamorig:LeftHandRing2
									{
										OFFSET 3.150009 -0.000031 0.000043
										CHANNELS 6 Xposition Yposition Zposition Xrotation Yrotation Zrotation
										JOINT mixamorig:LeftHandRing3
										{
											OFFSET 2.949982 -0.000015 0.000040
											CHANNELS 6 Xposition Yposition Zposition Xrotation Yrotation Zrotation
											JOINT mixamorig:LeftHandRing4
											{
												OFFSET 2.644348 0.000000 0.000057
												CHANNELS 6 Xposition Yposition Zposition Xrotation Yrotation Zrotation
												End Site
												{
													OFFSET 264.434631 0.000000 0.012105
												}
											}
										}
									}
								}
								JOINT mixamorig:LeftHandPinky1
								{
									OFFSET 8.077789 -0.486847 -3.806259
									CHANNELS 6 Xposition Yposition Zposition Xrotation Yrotation Zrotation
									JOINT mixamorig:LeftHandPinky2
									{
										OFFSET 3.599953 0.000031 0.014727
										CHANNELS 6 Xposition Yposition Zposition Xrotation Yrotation Zrotation
										JOINT mixamorig:LeftHandPinky3
										{
											OFFSET 2.100021 0.000015 0.007705
											CHANNELS 6 Xposition Yposition Zposition Xrotation Yrotation Zrotation
											JOINT mixamorig:LeftHandPinky4
											{
												OFFSET 2.125504 0.000031 0.007517
												CHANNELS 6 Xposition Yposition Zposition Xrotation Yrotation Zrotation
												End Site
												{
													OFFSET 212.550781 0.000000 0.625752
												}
											}
										}
									}
								}
							}
						}
					}
				}
			}
		}
	}
	JOINT mixamorig:RightUpLeg
	{
		OFFSET -8.207787 -6.751648 -1.599560
		CHANNELS 6 Xposition Yposition Zposition Xrotation Yrotation Zrotation
		JOINT mixamorig:RightLeg
		{
			OFFSET -0.000002 -44.370117 0.345942
			CHANNELS 6 Xposition Yposition Zposition Xrotation Yrotation Zrotation
			JOINT mixamorig:RightFoot
			{
				OFFSET 0.000003 -44.423679 -3.043532
				CHANNELS 6 Xposition Yposition Zposition Xrotation Yrotation Zrotation
				JOINT mixamorig:RightToeBase
				{
					OFFSET -0.000002 -8.728671 10.710558
					CHANNELS 6 Xposition Yposition Zposition Xrotation Yrotation Zrotation
					JOINT mixamorig:RightToe_End
					{
						OFFSET -0.000001 -0.000679 9.278119
						CHANNELS 6 Xposition Yposition Zposition Xrotation Yrotation Zrotation
						End Site
						{
							OFFSET 0.000000 -0.067690 927.812134
						}
					}
				}
			}
		}
	}
	JOINT mixamorig:LeftUpLeg
	{
		OFFSET 8.207793 -6.751686 -1.599556
		CHANNELS 6 Xposition Yposition Zposition Xrotation Yrotation Zrotation
		JOINT mixamorig:LeftLeg
		{
			OFFSET -0.000004 -44.370014 0.346954
			CHANNELS 6 Xposition Yposition Zposition Xrotation Yrotation Zrotation
			JOINT mixamorig:LeftFoot
			{
				OFFSET -0.000001 -44.423672 -3.044401
				CHANNELS 6 Xposition Yposition Zposition Xrotation Yrotation Zrotation
				JOINT mixamorig:LeftToeBase
				{
					OFFSET -0.000002 -8.728669 10.710558
					CHANNELS 6 Xposition Yposition Zposition Xrotation Yrotation Zrotation
					JOINT mixamorig:LeftToe_End
					{
						OFFSET -0.000003 -0.000679 9.278133
						CHANNELS 6 Xposition Yposition Zposition Xrotation Yrotation Zrotation
						End Site
						{
							OFFSET 0.000000 -0.068021 927.813477
						}
					}
				}
			}
		}
	}
}
MOTION
Frames: 3
Frame Time: 0.033333
0.000006 104.270477 1.554256 0.000010 0.000003 -0.000113 -0.000005 10.181587 0.131522 0.000001 -0.000003 0.000084 -0.000000 9.893967 -1.470711 0.000001 0.000000 -0.000000 -0.000000 9.220802 -1.370642 0.000000 -0.000000 -0.000000 0.000001 16.740433 -2.049030 0.000000 -0.000000 -0.000000 0.000000 9.617859 1.685014 0.000000 0.000000 0.000000 0.000002 22.037384 7.501101 0.000000 -0.000000 0.000000 -4.569968 11.014880 -2.160881 0.000008 0.000001 -0.000038 -10.592876 -0.524761 -2.231903 72.995249 28.490614 -21.277556 -27.841539 0.000020 0.000541 -56.890794 107.464441 72.879471 -28.328810 0.000006 0.000018 -0.000325 -0.000043 0.000006 -2.464473 -1.573938 2.682397 -28.736324 -156.110107 31.044835 -3.215284 -1.872598 1.924664 157.998040 30.467790 -4.522249 -2.654949 -1.527884 1.513091 146.214829 26.818393 -40.046878 -2.018831 -1.151989 1.108058 0.000002 0.000001 0.000004 -9.108383 -0.517551 2.260134 100.476126 16.289759 -19.575759 -3.700059 0.000337 0.001503 97.216487 10.779174 -12.193948 -2.850054 0.000378 -0.000270 95.778056 8.252352 -9.125031 -2.772177 -0.000001 -0.000019 -0.000001 -0.000000 -0.000001 -9.532584 0.000273 0.000232 87.907315 16.599564 -16.150158 -3.700061 0.000340 0.003937 87.046171 8.974728 -8.438607 -2.950043 0.000351 -0.001856 87.417344 9.119655 -8.712570 -2.946626 -0.000000 -0.000156 -0.000001 -0.000000 0.000001 -9.103712 -0.042793 -1.864917 80.315600 19.213046 -16.216927 -3.379333 0.000300 -0.000869 84.205461 8.502155 -7.701079 -2.889737 0.000354 0.000585 88.169710 5.247192 -5.125491 -2.638809 -0.000016 0.000943 0.000002 -0.000005 0.000000 -8.076748 -0.486428 -3.806124 66.341750 17.140216 -11.149922 -3.600028 0.000236 -0.003611 66.820424 8.613418 -5.449430 -2.100016 0.000289 -0.005585 68.579395 5.928271 -3.892846 -2.115775 -0.000055 -0.003683 0.000000 -0.000002 -0.000003 4.570446 11.014691 -2.160851 -0.000018 0.000010 -0.000021 10.592422 -0.524461 -2.232379 74.440661 -19.734450 15.053202 27.841824 0.000059 -0.000202 100.255306 -71.950401 81.981196 28.328833 -0.000044 0.000017 0.000022 -0.000088 -0.000000 2.465916 -1.576112 2.681897 -47.553266 165.496590 9.542503 3.217753 -1.871705 1.916352 153.136885 -32.697325 -12.203728 2.656097 -1.528602 1.514442 143.442141 -27.641666 35.122564 2.020894 -1.154053 1.115153 0.000001 0.000001 0.000004 9.109351 -0.517845 2.259721 85.978203 -13.897281 12.951486 3.700044 0.000157 -0.000474 83.364542 -14.477377 12.920392 2.850051 0.000164 0.000206 81.159791 -12.505953 10.721494 2.774879 -0.000032 -0.000026 -0.000002 0.000001 0.000000 9.533437 0.000238 -0.000088 87.225764 -11.124070 10.593134 3.700063 0.000176 -0.000386 88.207023 -12.721978 12.330421 2.950072 0.000147 -0.000179 85.505103 -18.824285 17.428128 2.952852 -0.000029 0.000064 0.000001 0.000000 -0.000001 9.104557 -0.042834 -1.865246 85.257481 -10.308487 9.494290 3.150065 0.000212 -0.000080 91.395840 -12.095989 12.393892 2.950039 0.000162 -0.000063 90.764137 -16.537930 16.758723 2.644326 0.000030 0.000058 0.000002 0.000001 -0.000000 8.077810 -0.486725 -3.806421 72.872545 -12.095352 9.362943 3.599979 0.000179 0.014559 77.248927 -10.701452 8.956897 2.100037 0.000176 0.007542 80.034832 -12.150119 10.620186 2.125495 -0.000016 0.007513 -0.000000 -0.000000 0.000000 -8.207786 -6.751667 -1.599560 -0.077001 -0.000003 0.000080 -0.000002 -44.370110 0.345938 0.153719 -0.000000 -0.000000 0.000000 -44.423679 -3.043532 -0.076700 0.000000 -0.000002 -0.000006 -8.728667 10.710559 -0.000009 -0.000000 -0.000000 -0.000001 -0.000679 9.278123 0.000000 -0.000000 -0.000000 8.207792 -6.751710 -1.599556 -0.074518 -0.000003 0.000081 -0.000002 -44.370014 0.346960 0.148822 0.000002 0.000000 -0.000001 -44.423664 -3.044403 -0.074314 0.000000 -0.000002 -0.000004 -8.728671 10.710558 0.000007 -0.000000 -0.000000 0.000000 -0.000680 9.278137 -0.000000 0.000000 -0.000001 
0.000006 104.270477 1.554256 0.000010 0.000003 -0.000113 -0.000005 10.181587 0.131522 0.000001 -0.000003 0.000084 -0.000000 9.893967 -1.470711 0.000001 0.000000 -0.000000 -0.000000 9.220802 -1.370642 0.000000 -0.000000 -0.000000 0.000001 16.740433 -2.049030 0.000000 -0.000000 -0.000000 0.000000 9.617859 1.685014 0.000000 0.000000 0.000000 0.000002 22.037384 7.501101 0.000000 -0.000000 0.000000 -4.569968 11.014880 -2.160881 0.000008 0.000001 -0.000038 -10.592875 -0.524768 -2.231902 73.034065 29.247850 -21.869158 -27.841518 -0.000000 0.000549 -54.328479 105.866006 68.377072 -28.328823 0.000022 0.000031 -0.000317 -0.000045 0.000008 -2.464425 -1.573774 2.682354 -45.221941 -166.032787 -2.508570 -3.215285 -1.872567 1.924666 155.368144 31.523567 2.748201 -2.654955 -1.527880 1.513051 147.581714 27.235528 -32.829673 -2.018838 -1.151987 1.108062 -0.000000 -0.000005 0.000000 -9.108389 -0.517559 2.260127 98.755608 15.107864 -17.630048 -3.700042 0.000331 0.001497 96.893890 10.578267 -11.899417 -2.850098 0.000370 -0.000262 95.622635 8.618877 -9.504195 -2.772164 -0.000001 -0.000017 -0.000003 0.000001 0.000000 -9.532583 0.000258 0.000217 86.960404 16.174788 -15.484397 -3.700060 0.000338 0.003935 88.592533 9.870287 -9.541882 -2.950065 0.000332 -0.001827 89.005008 10.850423 -10.657782 -2.946617 0.000003 -0.000153 0.000002 -0.000000 0.000000 -9.103713 -0.042771 -1.864920 80.394100 19.272294 -16.289627 -3.379335 0.000315 -0.000846 84.641733 11.367772 -10.373409 -2.889749 0.000348 0.000589 87.344568 8.294026 -7.963785 -2.638822 -0.000003 0.000943 0.000001 -0.000001 -0.000001 -8.076751 -0.486421 -3.806113 65.568108 19.418506 -12.473884 -3.600055 0.000215 -0.003609 65.880815 13.380842 -8.442225 -2.100031 0.000266 -0.005584 66.990379 9.323499 -6.022667 -2.115770 -0.000056 -0.003687 -0.000001 -0.000002 -0.000002 4.570446 11.014691 -2.160851 -0.000018 0.000010 -0.000021 10.592407 -0.524475 -2.232355 73.464033 -15.365842 11.497301 27.841825 0.000064 -0.000168 102.135261 -74.808562 86.856128 28.328817 -0.000029 0.000026 0.000023 -0.000088 -0.000000 2.466182 -1.576126 2.681863 -9.938529 160.268108 -68.265309 3.217808 -1.871734 1.916381 164.322672 -30.764149 4.979296 2.656121 -1.528663 1.514480 142.821755 -26.453350 54.835194 2.020887 -1.154073 1.115150 0.000001 0.000000 0.000001 9.109375 -0.517863 2.259735 87.042585 -17.097150 16.236557 3.700031 0.000172 -0.000477 83.981527 -10.367499 9.351542 2.850043 0.000198 0.000190 82.934431 -7.822361 6.913930 2.774896 -0.000030 -0.000024 -0.000002 0.000003 -0.000001 9.533462 0.000233 -0.000094 86.609736 -15.598427 14.703505 3.700021 0.000193 -0.000393 89.410243 -8.220811 8.134394 2.950034 0.000190 -0.000207 90.352338 -9.796685 9.859684 2.952859 -0.000045 0.000060 -0.000001 0.000001 -0.000001 9.104578 -0.042831 -1.865242 84.751596 -15.255820 13.934201 3.150059 0.000228 -0.000099 92.723356 -9.789498 10.265605 2.950020 0.000201 -0.000072 95.117529 -10.090076 11.030391 2.644341 0.000030 0.000060 -0.000001 -0.000000 -0.000000 8.077833 -0.486721 -3.806389 73.678548 -17.764704 13.808453 3.600012 0.000159 0.014551 76.645302 -15.000699 12.296097 2.100041 0.000177 0.007561 80.169134 -12.036907 10.549180 2.125498 -0.000000 0.007512 0.000001 0.000001 -0.000001 -8.207786 -6.751667 -1.599560 -0.077001 -0.000003 0.000080 -0.000002 -44.370110 0.345938 0.153719 -0.000000 -0.000000 0.000000 -44.423679 -3.043532 -0.076700 0.000000 -0.000002 -0.000006 -8.728667 10.710559 -0.000009 -0.000000 -0.000000 -0.000001 -0.000679 9.278123 0.000000 -0.000000 -0.000000 8.207792 -6.751710 -1.599556 -0.074518 -0.000003 0.000081 -0.000002 -44.370014 0.346960 0.148822 0.000002 0.000000 -0.000001 -44.423664 -3.044403 -0.074314 0.000000 -0.000002 -0.000004 -8.728671 10.710558 0.000007 -0.000000 -0.000000 0.000000 -0.000680 9.278137 -0.000000 0.000000 -0.000001 
0.000006 104.270477 1.554256 0.000010 0.000003 -0.000113 -0.000005 10.181587 0.131522 0.000001 -0.000003 0.000084 -0.000000 9.893967 -1.470711 0.000001 0.000000 -0.000000 -0.000000 9.220802 -1.370642 0.000000 -0.000000 -0.000000 0.000001 16.740433 -2.049030 0.000000 -0.000000 -0.000000 0.000000 9.617859 1.685014 0.000000 0.000000 0.000000 0.000002 22.037384 7.501101 0.000000 -0.000000 0.000000 -4.569968 11.014880 -2.160881 0.000008 0.000001 -0.000038 -10.592861 -0.524801 -2.231854 73.170526 39.335681 -29.716592 -27.841534 0.000004 0.000565 -52.592580 103.822530 64.460183 -28.328823 -0.000006 0.000031 -0.000322 -0.000046 0.000008 -2.464404 -1.573778 2.682357 -45.839442 -166.833736 -4.027813 -3.215272 -1.872582 1.924659 155.703178 31.440607 2.028564 -2.654958 -1.527873 1.513072 147.756171 27.123620 -33.661515 -2.018834 -1.151997 1.108062 -0.000002 -0.000001 0.000002 -9.108351 -0.517560 2.260123 98.125243 15.531049 -17.923303 -3.700042 0.000334 0.001517 96.858674 11.008263 -12.375627 -2.850082 0.000361 -0.000269 96.165983 9.121044 -10.153338 -2.772169 -0.000015 -0.000024 0.000002 -0.000001 -0.000001 -9.532589 0.000255 0.000210 85.961264 16.839859 -15.841729 -3.700063 0.000339 0.003929 88.409887 10.264063 -9.894368 -2.950049 0.000337 -0.001851 89.636951 11.186041 -11.108800 -2.946622 0.000003 -0.000153 -0.000006 -0.000001 -0.000001 -9.103695 -0.042775 -1.864916 79.763120 19.936209 -16.670308 -3.379342 0.000317 -0.000835 84.610184 11.634707 -10.611109 -2.889755 0.000341 0.000612 88.348702 8.510956 -8.315182 -2.638811 -0.000029 0.000940 0.000002 -0.000001 -0.000002 -8.076742 -0.486415 -3.806098 65.334994 20.048728 -12.829087 -3.600079 0.000205 -0.003616 65.390011 13.723643 -8.584011 -2.100045 0.000265 -0.005591 67.385431 9.558460 -6.224596 -2.115778 -0.000054 -0.003681 0.000001 0.000001 -0.000005 4.570446 11.014691 -2.160851 -0.000018 0.000010 -0.000021 10.592424 -0.524473 -2.232379 72.900644 -22.539390 16.745998 27.841825 0.000024 -0.000176 103.618341 -76.213710 89.827274 28.328833 -0.000027 0.000027 0.000019 -0.000089 -0.000001 2.466129 -1.576162 2.681895 -16.278200 158.146378 -55.634917 3.217825 -1.871749 1.916392 164.357014 -28.874386 12.830827 2.656109 -1.528652 1.514469 145.950720 -25.611553 52.165402 2.020891 -1.154069 1.115147 0.000001 0.000002 0.000002 9.109366 -0.517865 2.259733 85.976960 -18.149536 16.924577 3.700039 0.000170 -0.000464 84.022480 -11.977195 10.811075 2.850054 0.000192 0.000204 83.400783 -9.048419 8.064298 2.774879 -0.000045 -0.000030 -0.000002 0.000001 -0.000000 9.533456 0.000208 -0.000075 84.753700 -15.904239 14.518260 3.700027 0.000189 -0.000384 88.712867 -8.988486 8.787072 2.950039 0.000199 -0.000208 89.867101 -9.785650 9.765926 2.952893 -0.000015 0.000062 0.000001 0.000000 0.000001 9.104576 -0.042844 -1.865217 83.868193 -15.669463 14.094904 3.150041 0.000213 -0.000098 90.931299 -10.078088 10.244177 2.950019 0.000183 -0.000089 92.716977 -9.149104 9.593341 2.644310 0.000032 0.000057 -0.000002 -0.000000 -0.000000 8.077828 -0.486733 -3.806391 75.534147 -17.274071 13.888380 3.600006 0.000166 0.014562 77.038168 -13.909999 11.503822 2.100048 0.000183 0.007536 79.521973 -10.451719 9.098990 2.125511 -0.000030 0.007516 -0.000000 0.000001 -0.000000 -8.207786 -6.751667 -1.599560 -0.077001 -0.000003 0.000080 -0.000002 -44.370110 0.345938 0.153719 -0.000000 -0.000000 0.000000 -44.423679 -3.043532 -0.076700 0.000000 -0.000002 -0.000006 -8.728667 10.710559 -0.000009 -0.000000 -0.000000 -0.000001 -0.000679 9.278123 0.000000 -0.000000 -0.000000 8.207792 -6.751710 -1.599556 -0.074518 -0.000003 0.000081 -0.000002 -44.370014 0.346960 0.148822 0.000002 0.000000 -0.000001 -44.423664 -3.044403 -0.074314 0.000000 -0.000002 -0.000004 -8.728671 10.710558 0.000007 -0.000000 -0.000000 0.000000 -0.000680 9.278137 -0.000000 0.000000 -0.000001 
